<svg xmlns="http://www.w3.org/2000/svg" viewBox="0 0 701.31 98.72"><defs><style>.cls-1{fill:none;stroke:#fff;stroke-miterlimit:10;stroke-width:2px;}.cls-2{fill:#fff;}</style></defs><title>Asset 8</title><g id="Layer_2" data-name="Layer 2"><g id="LINE_NAMA" data-name="LINE NAMA"><line class="cls-1" y1="97.72" x2="701.31" y2="97.72"/></g><g id="NAMA_PERUSAHAAN" data-name="NAMA PERUSAHAAN"><line class="cls-1" y1="36.9" x2="701.31" y2="36.9"/><path class="cls-2" d="M700.3,23.93h-43a.86.86,0,0,1-.86-.86V.86a.86.86,0,0,1,.86-.86h43a.85.85,0,0,1,.86.86V23.07A.85.85,0,0,1,700.3,23.93ZM657.28.7a.16.16,0,0,0-.16.16V23.07a.16.16,0,0,0,.16.16h43a.16.16,0,0,0,.16-.16V.86A.16.16,0,0,0,700.3.7Z"/><rect class="cls-2" x="658.09" y="1.86" width="4.19" height="4.19"/><rect class="cls-2" x="663.41" y="1.86" width="4.19" height="4.19"/><rect class="cls-2" x="668.72" y="1.86" width="4.19" height="4.19"/><rect class="cls-2" x="665.51" y="7.2" width="4.19" height="4.19"/><rect class="cls-2" x="658.09" y="7.2" width="6.39" height="4.19"/><rect class="cls-2" x="671.19" y="7.2" width="4.19" height="4.19"/><rect class="cls-2" x="676.88" y="7.2" width="4.19" height="4.19"/><rect class="cls-2" x="682.57" y="7.2" width="4.19" height="4.19"/><rect class="cls-2" x="688.25" y="7.2" width="4.19" height="4.19"/><rect class="cls-2" x="693.94" y="7.2" width="5.55" height="4.19"/><rect class="cls-2" x="658.09" y="17.88" width="6.39" height="4.19"/><rect class="cls-2" x="693.94" y="17.88" width="5.55" height="4.19"/><rect class="cls-2" x="665.95" y="17.88" width="26.06" height="4.19"/><rect class="cls-2" x="674.04" y="1.86" width="4.19" height="4.19"/><rect class="cls-2" x="679.35" y="1.86" width="4.19" height="4.19"/><rect class="cls-2" x="684.66" y="1.86" width="4.19" height="4.19"/><rect class="cls-2" x="689.98" y="1.86" width="4.19" height="4.19"/><rect class="cls-2" x="695.29" y="1.86" width="4.19" height="4.19"/><rect class="cls-2" x="658.09" y="12.54" width="4.19" height="4.19"/><rect class="cls-2" x="663.41" y="12.54" width="4.19" height="4.19"/><rect class="cls-2" x="668.72" y="12.54" width="4.19" height="4.19"/><rect class="cls-2" x="674.04" y="12.54" width="4.19" height="4.19"/><rect class="cls-2" x="679.35" y="12.54" width="4.19" height="4.19"/><rect class="cls-2" x="684.66" y="12.54" width="4.19" height="4.19"/><rect class="cls-2" x="689.98" y="12.54" width="4.19" height="4.19"/><rect class="cls-2" x="695.29" y="12.54" width="4.19" height="4.19"/></g></g></svg>