<svg xmlns="http://www.w3.org/2000/svg" viewBox="0 0 701.41 104.9"><defs><style>.cls-1{fill:none;stroke:#fff;stroke-miterlimit:10;stroke-width:2px;}.cls-2{fill:#fff;}.cls-3{fill:#f3f3f3;}</style></defs><title>Asset 3</title><g id="Layer_2" data-name="Layer 2"><g id="TANDA_TANGAN" data-name="TANDA TANGAN"><line class="cls-1" x1="0.11" y1="47.8" x2="701.41" y2="47.8"/><path class="cls-2" d="M691.47,2.72l.59-1.46a.49.49,0,0,0-.22-.61L690.77.06a.48.48,0,0,0-.63.14l-.92,1.27a2.71,2.71,0,0,0-2.45.72l-.5-.28a2.67,2.67,0,0,0-2.07-.23A2.73,2.73,0,0,0,682.57,3l-6.22,11.27a.83.83,0,0,0,.33,1.14.8.8,0,0,0,.4.11.84.84,0,0,0,.74-.44l6.23-11.26a1,1,0,0,1,.62-.5,1.09,1.09,0,0,1,.79.09l.4.22L671.2,30.12a.57.57,0,0,0-.07.33l-1.43,5.42s0,.06,0,.09a1.79,1.79,0,0,0,.92,1.86,1.83,1.83,0,0,0,.88.23,1.78,1.78,0,0,0,1.18-.45l.06-.06,3.83-4.09a.59.59,0,0,0,.24-.23L691.9,5.89A2.7,2.7,0,0,0,691.47,2.72ZM671.53,36.35a.14.14,0,0,1-.19-.11l1.17-4.43L674.66,33Zm19.38-31L676.22,31.94l-3.63-2,14.7-26.59a1.57,1.57,0,0,1,2.13-.61l.88.49A1.56,1.56,0,0,1,690.91,5.35Z"/><path class="cls-2" d="M672.7,23.12a.84.84,0,0,0,1-.67.83.83,0,0,0-.67-1,20.56,20.56,0,0,0-6-.13c-4.35.57-7.46,2.6-9,5.88a6,6,0,0,0-.12,5.33c2.08,4.31,9.18,6.07,9.48,6.14l.2,0a.84.84,0,0,0,.19-1.66c-.06,0-6.62-1.63-8.35-5.23a4.32,4.32,0,0,1,.12-3.89C662.62,21.27,672.6,23.1,672.7,23.12Z"/><path class="cls-2" d="M698.21,14.86c-1.37-1.79-3.81-2.9-7.27-3.31a.83.83,0,0,0-.93.73.84.84,0,0,0,.73.94c3,.35,5.07,1.27,6.14,2.66a3.77,3.77,0,0,1,.77,2.78c-.62,4.2-9.51,4.61-12.88,4.41a.85.85,0,0,0-.89.79.83.83,0,0,0,.79.89c.11,0,.65,0,1.48,0,3.58,0,12.37-.55,13.17-5.88A5.51,5.51,0,0,0,698.21,14.86Z"/></g><g id="BOX_TANDA_TANGAN" data-name="BOX TANDA TANGAN"><rect class="cls-3" y="51.8" width="701.31" height="53.09"/></g></g></svg>